PathFileType	4	(X/Y/Z)	Patient4_TMGait_0pt6_02_right_42.trc.trc
DataRate	CameraRate	NumFrames	NumMarkers	Units	OrigDataRate	OrigDataStartFrame	OrigNumFrames
85.365853658537	85.365853658537	4	33	mm	85.365853658537	18	       141
Frame#	Time	Sacral			L.Shoulder			Chest			R.Shoulder			Neck			R.ASIS			L.ASIS			R.Thigh.Superior			R.Thigh.Lateral			R.Thigh.Inferior			R.Patella			L.Thigh.Superior			L.Thigh.Lateral			L.Thigh.Inferior			L.Patella			L.Shank.Superior			L.Shank.Lateral			L.Shank.Inferior			R.Shank.Superior			R.Shank.Lateral			R.Shank.Inferior			R.Heel			R.Midfoot.Superior			R.Midfoot.Lateral			R.Toe			L.Heel			L.Midfoot.Lateral			L.Midfoot.Superior			L.Toe			L.Elbow			L.Wrist			R.Elbow			R.Wrist			
		X1	Y1	Z1	X2	Y2	Z2	X3	Y3	Z3	X4	Y4	Z4	X5	Y5	Z5	X6	Y6	Z6	X7	Y7	Z7	X8	Y8	Z8	X9	Y9	Z9	X10	Y10	Z10	X11	Y11	Z11	X12	Y12	Z12	X13	Y13	Z13	X14	Y14	Z14	X15	Y15	Z15	X16	Y16	Z16	X17	Y17	Z17	X18	Y18	Z18	X19	Y19	Z19	X20	Y20	Z20	X21	Y21	Z21	X22	Y22	Z22	X23	Y23	Z23	X24	Y24	Z24	X25	Y25	Z25	X26	Y26	Z26	X27	Y27	Z27	X28	Y28	Z28	X29	Y29	Z29	X30	Y30	Z30	X31	Y31	Z31	X32	Y32	Z32	X33	Y33	Z33	

18	50.929142857143	848.185512365258	1006.544568532867	476.739699683900	1053.594927261865	1432.365136880953	303.955209653303	1137.779203435293	1357.759390066419	472.301335856612	1043.508881200947	1440.916202218248	635.585188550237	1041.414477065598	1492.601461397101	453.668100938364	1068.650828450288	945.799788077188	606.467325555406	1066.985227199475	958.452933208600	329.225835788506	1147.405491054547	776.629523905841	576.818304560581	1109.837036696774	652.903525191260	650.231553193463	1197.977828518947	618.086573243576	568.703806934162	1234.471942288215	531.560891844118	586.882995595648	1076.462487157270	733.074043444840	363.886941706261	964.483605306265	634.655251034436	301.137576540192	1024.874652522831	544.076937382919	369.135097807382	1010.642030449832	477.752405484968	380.899472772166	980.393307665577	410.070001129937	372.624747191513	883.128522661510	302.828252673886	319.544062797661	918.590872188487	189.686963108748	396.749593696186	1212.291449664553	442.234373722747	596.323583259465	1152.871920518146	331.569721304309	659.766866927939	1215.879032189822	241.724322292125	606.829506298150	1113.559619556362	59.184127166547	579.044794431225	1280.831355590731	126.737084894318	618.018616473399	1199.933712329278	51.068880407685	650.126685161736	1403.989901772687	82.590711641421	637.372189588133	779.492471579905	39.115117630166	439.443681955040	854.483920564204	36.105723959242	360.107291976156	937.806197367028	95.720186683990	388.300157757032	1066.685133041538	41.380471420590	362.227008995031	1122.965595142000	1116.694598808028	142.381913138638	1375.415025573488	1127.070096769460	178.791359155264	850.039578154235	1159.883568065484	738.676325173299	768.673170666291	910.545961785237	747.362451379032	
19	50.940857142857	849.834405404275	1004.850423220136	478.111985254812	1053.715512147358	1430.858211439766	304.623802490751	1138.061212220415	1356.865653173354	473.065076487540	1043.966406357624	1440.376839302233	636.428370266392	1041.242576774118	1491.359253615721	454.177976989393	1070.322363425935	944.326240581285	607.724637789815	1068.524541980671	957.450814492184	330.296664091627	1147.116326032755	772.424290659364	579.192682260068	1106.240384167334	648.740191990702	651.310067099040	1194.563267084672	613.411667596624	570.199793430611	1229.497292057604	527.968351218145	587.070904363340	1076.036522155848	731.611596218854	364.560067486976	962.842111005957	634.159315084024	301.785229998240	1022.408596495924	542.974671285109	369.489938696629	1007.559157672733	476.512362269067	381.145020798006	976.568267751248	409.171709285888	372.882935319894	878.012460000737	302.988988241985	319.877058032307	912.531953464398	189.325493886973	396.783355442605	1209.353881814508	438.702490848316	596.451648082573	1151.954601726466	326.393153274228	658.882785059497	1217.489439008197	238.233750108952	605.877603747353	1119.424484457720	53.800847934289	576.824692371112	1285.354624982695	124.026449766241	616.279273361701	1205.625391748180	47.418754288675	648.298910541094	1409.321693145190	82.139278503464	636.289426164559	772.438966749424	39.286574209561	439.349432092073	847.449075004275	36.144718125919	360.113553194873	930.823725589019	95.712328788645	388.237971498963	1059.596677698076	41.204945509477	362.213757739909	1123.982907132044	1115.217152779994	143.921679156621	1375.670603013287	1131.129724078397	181.641322899847	850.784986528967	1159.266182143245	740.068382542411	770.630074425724	909.489377212264	748.652401412099	
20	50.952571428571	851.583640800964	1003.052166645699	479.693115719945	1053.694829858370	1429.280411297179	305.402578786378	1138.352311959879	1355.935646513789	473.889080189586	1044.449508745367	1439.668413439205	637.418885551095	1041.037955257298	1490.044040548186	454.820158668150	1072.172118672731	942.753555115322	609.049414186752	1070.157703408798	956.350928854430	331.529281902270	1147.290726978561	768.345817324315	581.550119659027	1103.136883978642	644.701340553531	652.138228745024	1191.681689248220	608.992277959553	571.477475317448	1224.853650463122	524.272227286323	586.977640482131	1075.868114387335	730.122536228748	365.278651759574	961.478596845898	633.617055778244	302.562836987681	1020.310339307671	541.813162048645	369.919496521471	1004.883798171861	475.157196450780	381.463080213569	973.049762554537	408.183663782100	373.222584991993	873.087061631079	303.187880370919	320.285534135192	906.563230799607	188.947078568682	396.846243564147	1206.259887646263	434.982722468748	596.315936952974	1150.059774137464	321.549511522139	657.682524368601	1217.368386910450	234.665864609863	604.664032753268	1122.036482576361	49.565433246590	574.465129002843	1287.087347204017	120.914205535432	614.217817164169	1207.921254836457	44.354378222033	646.371965057031	1411.433853654167	80.284257189374	635.032200901831	765.384501671487	39.516560287399	439.225228221640	840.429269987560	36.204207751589	360.108473711265	923.867514806425	95.720500180032	388.162677093165	1052.519132576621	41.004002413832	362.187306244571	1124.566750123968	1113.475676388206	145.601279643460	1375.514136949124	1134.031664166565	184.533771992995	852.446129757735	1157.727653996278	741.742533662280	774.135616637410	907.320991803810	750.210804858062	
21	50.964285714286	853.399030587019	1001.206188533944	481.463201431621	1053.547087867055	1427.666327088393	306.297779558097	1138.667510351924	1354.998501659009	474.781692868356	1044.946098452728	1438.812393861460	638.541190267456	1040.836485369642	1488.694659166037	455.600125812520	1074.169818011344	941.122014438904	610.439875791422	1071.857661637779	955.181508103497	332.922412073636	1147.952675833248	764.492630348004	583.807845234836	1100.611247139203	640.897050787313	652.681066655937	1189.415456965354	604.936545594768	572.502182875178	1220.670738578250	520.585888940517	586.593657995742	1075.968487700205	728.638029525837	366.044770050592	960.412090356412	633.041130971893	303.480021190456	1018.614829354791	540.606521708094	370.433705833120	1002.666535394407	473.686666003082	381.857725002295	969.868419853079	407.112356012043	373.652080035735	868.381932363008	303.445055471066	320.775137658940	900.701412047415	188.571432884646	396.940301324432	1203.162921337678	431.191992336466	595.902876644225	1147.457337198819	317.101079824728	656.273493337596	1215.774088851204	231.061884285306	603.221477477761	1121.667805719463	46.372766527590	572.108851353030	1286.327630615045	117.472690055991	611.914779590715	1207.154500558862	41.855681660110	644.465910594342	1410.699653427653	77.181940213593	633.640164188572	758.329653835871	39.846168936834	439.070749614597	833.427168870327	36.297886440576	360.090644164614	916.952536860639	95.748340798543	388.072342571619	1045.459460340594	40.778175112853	362.145497115374	1124.690197433852	1111.476399777870	147.425118877939	1374.969065648345	1135.783506209725	187.455091299661	855.009602830752	1155.327113586664	743.686200863919	779.151358564549	904.128154883486	752.036359227867	
